<svg width="167" height="156" xmlns="http://www.w3.org/2000/svg" xmlns:xlink="http://www.w3.org/1999/xlink" overflow="hidden"><defs><filter id="fx0" x="-10%" y="-10%" width="120%" height="120%" filterUnits="userSpaceOnUse" primitiveUnits="userSpaceOnUse"><feComponentTransfer color-interpolation-filters="sRGB"><feFuncR type="discrete" tableValues="0 0"/><feFuncG type="discrete" tableValues="0 0"/><feFuncB type="discrete" tableValues="0 0"/><feFuncA type="linear" slope="0.631373" intercept="0"/></feComponentTransfer><feGaussianBlur stdDeviation="2 2"/></filter><clipPath id="clip1"><rect x="863" y="137" width="167" height="156"/></clipPath><clipPath id="clip2"><rect x="-2" y="-2" width="171" height="158"/></clipPath><clipPath id="clip3"><rect x="0" y="0" width="168" height="156"/></clipPath><linearGradient x1="947" y1="142" x2="947" y2="284" gradientUnits="userSpaceOnUse" spreadMethod="reflect" id="fill4"><stop offset="0" stop-color="#6083CB"/><stop offset="0.5" stop-color="#3E70CA"/><stop offset="1" stop-color="#2E61BA"/></linearGradient></defs><g clip-path="url(#clip1)" transform="translate(-863 -137)"><g clip-path="url(#clip2)" filter="url(#fx0)" transform="translate(863 137)"><g clip-path="url(#clip3)"><path d="M7 30.6671C7 17.5961 17.5961 7 30.6671 7L137.333 7C150.404 7 161 17.5961 161 30.6671L161 125.333C161 138.404 150.404 149 137.333 149L30.6671 149C17.5961 149 7 138.404 7 125.333Z" fill="#FF0000" fill-rule="evenodd"/></g></g><path d="M870 165.667C870 152.596 880.596 142 893.667 142L1000.33 142C1013.4 142 1024 152.596 1024 165.667L1024 260.333C1024 273.404 1013.4 284 1000.33 284L893.667 284C880.596 284 870 273.404 870 260.333Z" fill="url(#fill4)" fill-rule="evenodd"/><text fill="#FFFFFF" font-family="Yu Gothic,Yu Gothic_MSFontService,sans-serif" font-weight="400" font-size="32" transform="translate(919.591 203)">File<tspan font-size="32" x="-30.42" y="39">Convert</tspan></text></g></svg>